<?xml version="1.0" encoding="UTF-8" standalone="no"?>
<!DOCTYPE svg PUBLIC "-//W3C//DTD SVG 1.1//EN" "http://www.w3.org/Graphics/SVG/1.1/DTD/svg11.dtd">
<svg xmlns="http://www.w3.org/2000/svg" version="1.1" viewBox="0 0 1000 680" width="1000" height="680">
	<path stroke="#fdfdfe" stroke-opacity="0.969" stroke-width="2.00" fill="none" stroke-linecap="butt" vector-effect="non-scaling-stroke" d=" M 300.56 194.81 Q 300.31 286.50 300.69 378.19 Q 300.69 379.18 300.69 378.19 L 300.56 194.81 Q 300.56 193.82 300.56 194.81" />
	<path fill="#ffffff" d=" M 793.31 0.00 L 813.81 0.00 Q 852.48 1.54 887.01 17.82 Q 895.87 22.00 904.52 27.45 Q 934.49 46.34 956.81 74.19 Q 992.48 118.70 998.02 175.75 Q 1000.80 204.41 995.72 232.74 Q 986.98 281.48 955.63 319.64 Q 901.46 385.59 816.97 392.85 Q 809.47 393.50 797.00 393.47 Q 766.87 393.39 736.74 393.65 Q 726.39 393.74 716.75 393.67 Q 654.70 393.20 623.50 393.50 Q 579.75 393.92 536.00 393.76 Q 484.34 393.58 432.68 393.51 Q 432.53 393.51 412.83 393.72 Q 405.01 393.80 393.00 393.75 Q 349.48 393.57 144.01 393.50 Q 130.32 393.50 124.03 392.94 Q 83.05 389.29 51.44 363.81 Q 3.68 325.33 0.00 262.44 L 0.00 132.19 Q 2.41 79.90 37.01 42.89 Q 43.86 35.56 51.75 29.41 Q 90.16 -0.52 140.50 0.21 L 155.00 0.21 Q 473.25 0.28 791.50 0.25 Q 792.83 0.25 793.31 0.00 Z M 160.25 260.29 Q 158.96 260.06 157.75 260.46 L 114.69 260.93 A 0.51 0.51 -0.6 0 0 114.19 261.44 L 114.25 383.77 A 0.72 0.71 -85.8 0 0 114.86 384.48 Q 121.39 385.46 128.10 385.92 Q 132.89 386.25 141.41 386.25 Q 220.23 386.25 299.63 386.25 A 0.81 0.81 0.0 0 0 300.44 385.44 Q 300.06 280.69 300.16 175.69 Q 300.23 92.22 300.25 8.12 A 0.56 0.56 -0.8 0 0 299.69 7.56 L 192.32 7.69 Q 191.81 7.69 192.29 7.85 Q 234.05 22.57 258.94 57.56 Q 278.05 84.43 282.34 117.24 Q 286.01 145.30 279.31 172.77 Q 270.82 207.61 244.29 231.54 Q 233.92 240.89 221.26 246.77 Q 201.26 256.07 179.31 258.56 Q 165.83 260.10 160.25 260.29 Z M 752.12 385.73 Q 719.38 377.56 691.81 358.17 Q 659.39 335.38 637.19 302.56 Q 612.70 266.38 607.47 220.75 Q 604.79 197.41 607.25 173.25 Q 610.88 137.55 627.00 106.32 Q 631.46 97.67 637.19 89.14 Q 659.11 56.51 691.72 33.96 Q 717.40 16.19 747.52 7.74 Q 748.39 7.50 747.49 7.50 L 503.60 7.50 Q 501.79 7.50 503.55 7.94 Q 537.18 16.26 561.62 40.63 Q 589.73 68.67 596.35 107.98 Q 600.28 131.32 596.25 153.75 Q 590.79 184.13 570.75 208.24 Q 559.89 221.30 546.57 231.59 A 0.70 0.70 59.9 0 0 546.35 232.42 L 610.02 385.77 A 0.78 0.78 78.7 0 0 610.74 386.25 L 752.94 386.19 Q 753.48 386.19 752.97 386.00 Q 752.55 385.84 752.12 385.73 Z M 161.06 111.44 Q 156.38 107.19 151.19 105.81 Q 144.43 104.02 136.25 105.03 Q 125.67 106.33 119.15 114.63 Q 113.69 121.59 113.55 129.72 Q 113.42 137.43 117.55 144.19 Q 121.84 151.22 129.81 154.19 Q 137.67 157.11 146.14 155.89 Q 154.92 154.62 160.76 149.70 Q 165.72 145.52 168.00 139.27 Q 170.19 133.27 169.40 127.05 Q 168.26 117.99 161.06 111.44 Z M 474.31 155.06 Q 478.71 149.72 479.87 142.47 Q 481.01 135.26 479.86 129.04 Q 478.66 122.49 474.10 117.59 Q 471.02 114.28 466.12 111.94 Q 461.66 109.81 456.75 108.75 Q 448.59 107.00 440.25 106.84 Q 429.00 106.62 417.91 106.75 A 0.67 0.66 -0.4 0 0 417.25 107.41 L 417.25 165.83 A 0.67 0.67 0.0 0 0 417.92 166.50 Q 432.22 166.55 446.19 166.33 Q 451.03 166.26 458.00 164.75 Q 468.14 162.56 474.31 155.06 Z M 749.19 261.31 Q 773.92 283.76 807.74 281.63 Q 840.19 279.59 862.06 255.56 Q 882.03 233.63 884.44 204.99 Q 885.29 194.85 884.27 185.01 Q 882.09 164.17 870.19 146.56 Q 859.96 131.43 844.69 121.88 Q 835.99 116.44 826.57 113.59 Q 812.77 109.41 797.75 110.25 Q 771.00 111.75 751.12 128.88 Q 721.71 154.20 720.18 192.01 Q 719.76 202.31 721.44 211.92 Q 726.48 240.70 749.19 261.31 Z M 300.56 194.81 Q 300.31 286.50 300.69 378.19 Q 300.69 379.18 300.69 378.19 L 300.56 194.81 Q 300.56 193.82 300.56 194.81 Z M 434.26 267.94 L 417.93 267.91 A 0.53 0.49 90.0 0 0 417.44 268.44 L 417.25 385.61 A 0.64 0.64 0.0 0 0 417.89 386.25 L 487.35 386.25 A 0.23 0.23 -11.8 0 0 487.56 385.93 L 434.97 268.42 A 0.82 0.76 76.7 0 0 434.26 267.94 Z" />
	<path fill="#fafbfd" fill-opacity="0.933" d=" M 300.56 194.81 L 300.69 378.19 Q 300.69 379.18 300.69 378.19 Q 300.31 286.50 300.56 194.81 Q 300.56 193.82 300.56 194.81 Z" />
	<path fill="#ffffff" d=" M 900.96 679.75 L 895.44 680.00 L 133.94 680.00 Q 67.75 676.83 28.65 626.57 Q 22.26 618.37 17.63 609.92 Q 5.36 587.58 2.19 562.01 Q 1.56 556.94 1.15 554.00 Q 0.60 550.01 0.21 546.00 Q 0.21 516.04 9.81 491.56 Q 26.04 450.19 62.88 425.42 Q 90.54 406.83 123.73 402.87 Q 127.90 402.37 132.07 401.93 Q 136.11 401.50 140.45 401.50 Q 166.86 401.50 193.26 401.50 Q 193.29 401.50 211.24 401.26 Q 217.25 401.18 223.25 401.31 Q 231.77 401.50 235.25 401.51 Q 361.59 401.63 487.93 401.34 Q 496.41 401.32 507.93 401.42 Q 535.34 401.68 562.75 401.38 Q 574.44 401.25 582.76 401.25 Q 634.38 401.25 685.99 401.25 Q 694.32 401.25 706.00 401.38 Q 735.75 401.73 765.51 401.38 Q 776.25 401.26 785.51 401.32 Q 837.13 401.64 888.75 401.32 Q 897.12 401.27 899.00 401.75 Q 901.96 402.50 904.98 402.69 Q 909.29 402.97 910.96 403.30 Q 961.00 413.20 985.94 457.06 Q 999.01 480.06 999.01 508.00 Q 999.00 540.88 998.99 573.75 Q 998.98 609.02 978.02 637.03 Q 956.59 665.66 922.34 675.93 Q 922.28 675.95 920.21 676.68 Q 918.41 677.31 915.50 677.75 Q 908.24 678.85 900.96 679.75 Z M 189.06 571.06 L 271.67 571.00 A 0.80 0.79 -83.4 0 1 272.44 571.98 Q 266.81 595.30 255.46 615.51 Q 230.21 660.48 180.55 674.55 Q 180.06 674.69 180.56 674.73 Q 183.77 675.00 185.50 675.00 Q 281.62 675.00 377.75 675.08 Q 380.39 675.08 383.01 674.80 Q 383.50 674.75 383.02 674.60 Q 341.73 661.60 314.66 627.84 Q 285.89 591.95 284.69 546.50 Q 284.42 536.35 285.32 526.51 Q 288.91 487.17 313.89 455.90 Q 340.91 422.07 382.26 409.02 Q 384.72 408.24 387.26 407.75 Q 389.77 407.26 387.22 407.25 Q 282.25 406.63 176.50 407.25 Q 176.37 407.25 176.24 407.36 Q 176.01 407.55 176.32 407.62 Q 205.34 414.46 228.19 433.56 Q 253.11 454.39 265.54 484.45 Q 270.24 495.78 273.92 508.35 A 0.71 0.70 -8.0 0 1 273.24 509.25 L 186.89 509.25 A 1.12 1.10 75.3 0 1 185.92 508.67 Q 170.83 481.37 138.75 481.33 Q 117.58 481.30 102.56 494.06 Q 83.43 510.33 81.53 536.73 Q 80.46 551.63 85.19 565.06 Q 91.12 581.92 106.11 592.37 Q 118.68 601.12 135.50 601.75 Q 172.51 603.13 188.34 571.52 A 0.81 0.79 -77.0 0 1 189.06 571.06 Z M 462.22 407.19 Q 459.20 407.20 462.12 407.98 Q 489.01 415.22 511.32 434.41 Q 527.59 448.41 538.94 465.56 Q 559.48 496.62 561.03 534.50 Q 563.68 599.55 516.97 643.47 Q 494.37 664.71 464.12 674.20 Q 461.56 675.00 464.25 675.00 L 569.75 674.94 A 0.76 0.75 90.0 0 0 570.50 674.18 L 570.50 408.14 A 1.14 1.13 90.0 0 0 569.37 407.00 L 462.22 407.19 Z M 804.46 450.16 Q 831.23 481.41 834.41 523.74 Q 836.54 552.11 830.25 577.50 Q 820.29 617.68 788.26 645.50 Q 765.12 665.61 732.49 674.58 Q 731.87 674.75 732.51 674.75 Q 815.92 675.37 899.59 674.75 A 0.71 0.54 8.2 0 0 900.21 674.40 Q 900.40 673.96 899.80 673.97 Q 899.42 673.98 899.21 673.93 Q 887.06 670.86 876.69 664.81 Q 860.71 655.49 851.71 639.91 Q 847.16 632.03 844.32 621.40 Q 840.46 606.93 840.47 591.75 Q 840.50 541.65 840.50 491.54 Q 840.50 483.25 840.90 478.48 Q 841.44 471.96 842.55 465.51 Q 850.02 422.38 890.73 407.48 Q 891.18 407.31 890.68 407.29 Q 885.35 407.03 880.00 407.02 Q 805.70 406.81 731.40 407.25 Q 731.24 407.25 731.12 407.30 Q 730.56 407.53 731.03 407.63 Q 764.47 414.74 790.23 436.16 Q 798.00 442.62 804.46 450.16 Z M 423.1614 602.0396 A 60.55 58.07 89.8 0 0 481.0196 541.2873 A 60.55 58.07 89.8 0 0 422.7386 480.9404 A 60.55 58.07 89.8 0 0 364.8804 541.6927 A 60.55 58.07 89.8 0 0 423.1614 602.0396 Z M 653.03 597.56 Q 668.84 597.48 684.75 597.40 Q 690.24 597.37 700.81 595.81 Q 714.70 593.77 725.92 587.31 Q 732.83 583.32 737.61 578.02 Q 742.85 572.20 745.69 565.19 Q 753.22 546.56 749.75 525.75 Q 746.36 505.44 731.73 494.47 Q 724.79 489.26 713.83 485.76 Q 700.87 481.62 687.00 481.38 Q 670.50 481.09 653.40 481.26 A 0.91 0.90 90.0 0 0 652.50 482.17 L 652.50 597.03 A 0.53 0.53 0.0 0 0 653.03 597.56 Z M 929.98 505.79 Q 931.11 506.69 932.46 507.17 Q 938.67 509.39 946.00 509.39 Q 969.79 509.39 993.57 509.07 A 0.50 0.50 -0.6 0 0 994.06 508.57 Q 993.94 495.57 990.58 482.35 A 1.43 1.43 83.4 0 0 989.22 481.27 Q 965.05 480.94 942.17 481.65 Q 938.36 481.76 935.91 482.44 Q 932.31 483.43 930.06 485.06 Q 925.84 488.14 925.42 493.40 Q 925.11 497.19 925.95 500.07 Q 926.93 503.37 929.98 505.79 Z M 928.20 597.59 Q 932.94 599.03 938.00 599.07 Q 963.50 599.27 989.90 599.25 A 0.93 0.92 -82.1 0 0 990.79 598.57 Q 994.46 585.46 993.78 571.50 A 0.54 0.54 88.9 0 0 993.25 570.99 Q 984.94 570.87 944.00 570.75 Q 937.91 570.73 932.79 571.50 Q 926.37 572.46 923.46 575.28 Q 920.25 578.39 920.12 583.38 Q 920.04 586.50 920.26 588.62 Q 920.54 591.44 922.09 593.65 Q 923.94 596.30 928.20 597.59 Z" />
</svg>
